<?xml version="1.0" encoding="UTF-8" standalone="no"?>
<!-- Generator: Adobe Illustrator 15.0.0, SVG Export Plug-In . SVG Version: 6.00 Build 0)  -->

<svg
   xmlns:dc="http://purl.org/dc/elements/1.1/"
   xmlns:cc="http://creativecommons.org/ns#"
   xmlns:rdf="http://www.w3.org/1999/02/22-rdf-syntax-ns#"
   xmlns:svg="http://www.w3.org/2000/svg"
   xmlns="http://www.w3.org/2000/svg"
   xmlns:sodipodi="http://sodipodi.sourceforge.net/DTD/sodipodi-0.dtd"
   xmlns:inkscape="http://www.inkscape.org/namespaces/inkscape"
   version="1.1"
   id="Layer_1"
   x="0px"
   y="0px"
   width="61.068756"
   height="50"
   viewBox="0 0 61.068757 50"
   enable-background="new 0 0 64 64"
   xml:space="preserve"
   inkscape:version="0.48.4 r9939"
   sodipodi:docname="tab-1.svg"><metadata
   id="metadata9"><rdf:RDF><cc:Work
       rdf:about=""><dc:format>image/svg+xml</dc:format><dc:type
         rdf:resource="http://purl.org/dc/dcmitype/StillImage" /><dc:title /></cc:Work></rdf:RDF></metadata><defs
   id="defs7" /><sodipodi:namedview
   pagecolor="#ffffff"
   bordercolor="#666666"
   borderopacity="1"
   objecttolerance="10"
   gridtolerance="10"
   guidetolerance="10"
   inkscape:pageopacity="0"
   inkscape:pageshadow="2"
   inkscape:window-width="1366"
   inkscape:window-height="706"
   id="namedview5"
   showgrid="false"
   inkscape:zoom="9.08"
   inkscape:cx="39.933329"
   inkscape:cy="23.55158"
   inkscape:window-x="-8"
   inkscape:window-y="-8"
   inkscape:window-maximized="1"
   inkscape:current-layer="Layer_1"
   fit-margin-top="0"
   fit-margin-left="0"
   fit-margin-right="0"
   fit-margin-bottom="0" />
<path
   d="M 60.701254,26.50034 54.117452,20.537998 V 6.3147766 c 0,-0.6127993 -0.496952,-1.1086687 -1.108669,-1.1086687 h -5.795608 c -0.29449,0 -0.577071,0.1158473 -0.786029,0.3248053 -0.208958,0.2089581 -0.325888,0.4915386 -0.32264,0.7871114 L 46.119664,13.293758 31.760023,0.28747368 c -0.420081,-0.3800222 -1.053452,-0.3832702 -1.478946,-0.009744 L 0.37733887,26.61727 c -0.38218752,0.335632 -0.48720789,0.884553 -0.25443079,1.337115 0.22952905,0.449313 0.73622525,0.689669 1.22992922,0.57707 l 6.6465982,-1.5006 v 20.49846 c -0.0065,0.178643 -0.00974,1.103255 0.6593547,1.798338 C 8.9554457,49.63297 9.4870436,50 10.343447,50 c 1.598042,0 14.831691,-0.01624 14.831691,-0.01624 0.613882,0 1.107586,-0.496952 1.108669,-1.108669 l 0.01732,-12.254902 c -0.01083,-0.142915 0.01516,-0.505614 0.162402,-0.666934 0.09961,-0.106103 0.312896,-0.131004 0.470968,-0.131004 h 6.157225 c 0.276084,0 0.64961,0.04439 0.841245,0.243603 0.211124,0.216537 0.207876,0.593311 0.204628,0.651776 l -0.02815,12.118484 c 0,0.293408 0.114764,0.575988 0.323722,0.786029 0.207876,0.207876 0.493704,0.326971 0.786029,0.326971 h 14.522043 c 0.987408,0 1.593711,-0.416834 1.925013,-0.764375 0.774119,-0.805517 0.748134,-1.909855 0.743804,-1.985643 V 26.696305 l 7.294043,1.706311 c 0.496952,0.118012 1.0004,-0.118013 1.237508,-0.565161 0.236025,-0.447149 0.136418,-0.99607 -0.240356,-1.337115 z M 48.326174,7.4245279 h 3.575023 V 18.528536 l -3.5577,-3.222068 -0.01732,-7.8819401 z m 3.226399,16.7924311 c -0.326971,-0.07795 -0.67776,0 -0.940853,0.211123 -0.264175,0.210041 -0.420081,0.530515 -0.420081,0.869396 v 21.928685 c 0,0.119095 -0.04331,0.33888 -0.126674,0.424412 -0.06821,0.06713 -0.230612,0.07579 -0.323723,0.07579 H 36.331116 l 0.02382,-10.929697 c 0.0097,-0.13317 0.06604,-1.320874 -0.789277,-2.238991 -0.410337,-0.434156 -1.167133,-0.953844 -2.475016,-0.953844 h -6.157225 c -1.10542,0 -1.763692,0.470967 -2.120978,0.865064 -0.761127,0.843411 -0.748135,1.973734 -0.728647,2.29096 l -0.01732,11.006568 c -3.215572,0.0032 -12.408643,0.01516 -13.724105,0.01516 -0.04006,0 -0.06496,-0.0022 -0.0812,-0.0022 -0.0022,0 -0.0054,0 -0.0076,0 -0.02057,-0.04439 -0.03573,-0.12884 -0.03573,-0.204628 V 25.643936 c 0,-0.336714 -0.155907,-0.656106 -0.4179167,-0.86723 C 9.5357644,24.566666 9.1903881,24.489795 8.8634175,24.561252 L 5.1021726,25.410077 31.002144,2.5979217 46.123994,16.292793 v 0.06604 h 0.07146 l 9.835104,8.908325 -4.477982,-1.050203 z"
   id="path3"
   style="fill:#b2b2b2;fill-opacity:1"
   inkscape:connector-curvature="0" />
</svg>