<?xml version="1.0" encoding="UTF-8" standalone="no"?>
<!-- Generator: Adobe Illustrator 14.0.0, SVG Export Plug-In . SVG Version: 6.00 Build 43363)  -->

<svg
   xmlns:dc="http://purl.org/dc/elements/1.1/"
   xmlns:cc="http://creativecommons.org/ns#"
   xmlns:rdf="http://www.w3.org/1999/02/22-rdf-syntax-ns#"
   xmlns:svg="http://www.w3.org/2000/svg"
   xmlns="http://www.w3.org/2000/svg"
   xmlns:xlink="http://www.w3.org/1999/xlink"
   xmlns:sodipodi="http://sodipodi.sourceforge.net/DTD/sodipodi-0.dtd"
   xmlns:inkscape="http://www.inkscape.org/namespaces/inkscape"
   version="1.1"
   id="Calque_1"
   x="0px"
   y="0px"
   width="877.32837"
   height="153.29803"
   viewBox="0 0 877.32837 153.29803"
   enable-background="new 0 0 822 267"
   xml:space="preserve"
   inkscape:version="0.48.4 r9939"
   sodipodi:docname="splashscreen-wp-marmite-black.svg"
   inkscape:export-filename="C:\Users\Benjamin\Desktop\Default-568@x2.png"
   inkscape:export-xdpi="90"
   inkscape:export-ydpi="90"><metadata
   id="metadata161"><rdf:RDF><cc:Work
       rdf:about=""><dc:format>image/svg+xml</dc:format><dc:type
         rdf:resource="http://purl.org/dc/dcmitype/StillImage" /><dc:title></dc:title></cc:Work></rdf:RDF></metadata><defs
   id="defs159">
	<defs
   id="defs5">
		<rect
   height="267"
   width="822"
   id="SVGID_1_"
   x="0"
   y="0" />
	</defs>
	<clipPath
   id="SVGID_2_">
		<use
   id="use9"
   overflow="visible"
   xlink:href="#SVGID_1_"
   style="overflow:visible"
   x="0"
   y="0"
   width="822"
   height="267" />
	</clipPath>
	
	
	

		<defs
   id="defs121">
			<rect
   id="SVGID_9_"
   width="822"
   height="267"
   x="0"
   y="0" />
		</defs>
		<clipPath
   id="SVGID_10_">
			<use
   xlink:href="#SVGID_9_"
   overflow="visible"
   id="use125"
   style="overflow:visible"
   x="0"
   y="0"
   width="822"
   height="267" />
		</clipPath>
		
		
		
		
		
		
		
		
		
		
		
		
		
		
		
	
		<defs
   id="defs33">
			<rect
   id="SVGID_7_"
   width="822"
   height="267"
   x="0"
   y="0" />
		</defs>
		<clipPath
   id="SVGID_8_">
			<use
   xlink:href="#SVGID_7_"
   overflow="visible"
   id="use37"
   style="overflow:visible"
   x="0"
   y="0"
   width="822"
   height="267" />
		</clipPath>
		
		
		
		
		
		
		
		
		
		
		
		
		
		
		
		
		
		
		
		
		
		
		
		
		
		
		
		
		
		
		
		
		
		
		
		
		
		
		
		
	
		<defs
   id="defs13">
			<rect
   id="SVGID_3_"
   width="822"
   height="267"
   x="0"
   y="0" />
		</defs>
		<clipPath
   id="SVGID_4_">
			<use
   xlink:href="#SVGID_3_"
   overflow="visible"
   id="use17"
   style="overflow:visible"
   x="0"
   y="0"
   width="822"
   height="267" />
		</clipPath>
		
	<clipPath
   id="SVGID_4_-1"><use
     xlink:href="#SVGID_3_"
     overflow="visible"
     id="use3087"
     style="overflow:visible"
     x="0"
     y="0"
     width="270.711"
     height="267" /></clipPath><clipPath
   id="SVGID_6_"><use
     height="267"
     width="270.711"
     y="0"
     x="0"
     style="overflow:visible"
     id="use3097"
     overflow="visible"
     xlink:href="#SVGID_5_" /></clipPath><clipPath
   id="SVGID_8_-7"><use
     xlink:href="#SVGID_7_"
     overflow="visible"
     id="use3107"
     style="overflow:visible"
     x="0"
     y="0"
     width="270.711"
     height="267" /></clipPath><clipPath
   id="clipPath3714"><use
     xlink:href="#SVGID_7_"
     overflow="visible"
     id="use3716"
     style="overflow:visible"
     x="0"
     y="0"
     width="270.711"
     height="267" /></clipPath><clipPath
   id="clipPath3718"><use
     xlink:href="#SVGID_7_"
     overflow="visible"
     id="use3720"
     style="overflow:visible"
     x="0"
     y="0"
     width="270.711"
     height="267" /></clipPath><clipPath
   id="clipPath3722"><use
     xlink:href="#SVGID_7_"
     overflow="visible"
     id="use3724"
     style="overflow:visible"
     x="0"
     y="0"
     width="270.711"
     height="267" /></clipPath><clipPath
   id="clipPath3726"><use
     xlink:href="#SVGID_7_"
     overflow="visible"
     id="use3728"
     style="overflow:visible"
     x="0"
     y="0"
     width="270.711"
     height="267" /></clipPath><clipPath
   id="clipPath3730"><use
     xlink:href="#SVGID_7_"
     overflow="visible"
     id="use3732"
     style="overflow:visible"
     x="0"
     y="0"
     width="270.711"
     height="267" /></clipPath><clipPath
   id="clipPath3734"><use
     xlink:href="#SVGID_7_"
     overflow="visible"
     id="use3736"
     style="overflow:visible"
     x="0"
     y="0"
     width="270.711"
     height="267" /></clipPath><clipPath
   id="clipPath3738"><use
     xlink:href="#SVGID_7_"
     overflow="visible"
     id="use3740"
     style="overflow:visible"
     x="0"
     y="0"
     width="270.711"
     height="267" /></clipPath><clipPath
   id="clipPath3742"><use
     xlink:href="#SVGID_7_"
     overflow="visible"
     id="use3744"
     style="overflow:visible"
     x="0"
     y="0"
     width="270.711"
     height="267" /></clipPath><clipPath
   id="clipPath3746"><use
     xlink:href="#SVGID_7_"
     overflow="visible"
     id="use3748"
     style="overflow:visible"
     x="0"
     y="0"
     width="270.711"
     height="267" /></clipPath><clipPath
   id="clipPath3750"><use
     xlink:href="#SVGID_7_"
     overflow="visible"
     id="use3752"
     style="overflow:visible"
     x="0"
     y="0"
     width="270.711"
     height="267" /></clipPath><clipPath
   id="clipPath3754"><use
     xlink:href="#SVGID_7_"
     overflow="visible"
     id="use3756"
     style="overflow:visible"
     x="0"
     y="0"
     width="270.711"
     height="267" /></clipPath><clipPath
   id="clipPath3758"><use
     xlink:href="#SVGID_7_"
     overflow="visible"
     id="use3760"
     style="overflow:visible"
     x="0"
     y="0"
     width="270.711"
     height="267" /></clipPath><clipPath
   id="clipPath3762"><use
     xlink:href="#SVGID_7_"
     overflow="visible"
     id="use3764"
     style="overflow:visible"
     x="0"
     y="0"
     width="270.711"
     height="267" /></clipPath><clipPath
   id="clipPath3766"><use
     xlink:href="#SVGID_7_"
     overflow="visible"
     id="use3768"
     style="overflow:visible"
     x="0"
     y="0"
     width="270.711"
     height="267" /></clipPath><clipPath
   id="SVGID_10_-4"><use
     xlink:href="#SVGID_9_"
     overflow="visible"
     id="use3145"
     style="overflow:visible"
     x="0"
     y="0"
     width="270.711"
     height="267" /></clipPath><clipPath
   id="clipPath3772"><use
     xlink:href="#SVGID_9_"
     overflow="visible"
     id="use3774"
     style="overflow:visible"
     x="0"
     y="0"
     width="270.711"
     height="267" /></clipPath><clipPath
   id="clipPath3776"><use
     xlink:href="#SVGID_9_"
     overflow="visible"
     id="use3778"
     style="overflow:visible"
     x="0"
     y="0"
     width="270.711"
     height="267" /></clipPath></defs><sodipodi:namedview
   pagecolor="#000000"
   bordercolor="#666666"
   borderopacity="1"
   objecttolerance="10"
   gridtolerance="10"
   guidetolerance="10"
   inkscape:pageopacity="1"
   inkscape:pageshadow="2"
   inkscape:window-width="1920"
   inkscape:window-height="1005"
   id="namedview157"
   showgrid="false"
   inkscape:zoom="0.270073"
   inkscape:cx="450.01733"
   inkscape:cy="-148.64146"
   inkscape:window-x="-9"
   inkscape:window-y="-9"
   inkscape:window-maximized="1"
   inkscape:current-layer="Calque_1"
   fit-margin-top="0"
   fit-margin-left="0"
   fit-margin-right="0"
   fit-margin-bottom="0" />

<g
   id="g3287"
   transform="matrix(0.73405039,0,0,0.73405039,-113.69316,-628.03936)"><g
     transform="matrix(1.1668919,0,0,1.1668919,-70.255295,838.56938)"
     id="g3371"><g
       id="g3332"
       transform="translate(166.74715,57.1095)"><path
         style="fill:#ffffff"
         inkscape:connector-curvature="0"
         id="path49"
         d="m 294.587,16.575 c 1.682,-1.866 4.11,-2.805 6.542,-2.805 2.612,0 4.856,0.939 6.726,2.805 1.493,1.497 2.801,4.298 2.616,6.538 v 1.308 c -0.939,12.144 -1.123,24.662 0.558,36.617 0.747,5.607 1.867,11.025 3.921,16.258 0.935,1.866 1.87,3.544 2.99,5.229 0.562,0.558 1.124,1.308 1.87,1.866 0.374,0.377 0.935,0.562 1.309,0.939 0.558,0 1.119,0.181 1.677,0.37 h 1.124 c 0.373,0 0.558,-0.189 0.931,-0.189 0.377,-0.181 0.75,-0.558 1.124,-0.743 0.558,-0.565 1.308,-1.312 1.866,-2.054 1.308,-1.874 2.432,-3.921 3.363,-6.169 2.617,-6.353 4.114,-13.075 5.045,-19.99 0.562,-3.921 0.935,-7.846 0.935,-11.767 0,-5.229 4.294,-9.343 9.343,-9.343 5.233,0 9.154,4.295 9.343,9.343 0.18,3.921 0.557,7.658 0.931,11.579 1.123,7.288 2.612,14.391 5.229,21.298 0.935,1.866 2.055,3.74 3.182,5.607 0.558,0.561 1.116,1.119 1.678,1.681 0.377,0.189 0.558,0.377 0.935,0.558 0.185,0 0.373,0.189 0.562,0.189 h 0.927 c 0.566,-0.189 0.939,-0.189 1.497,-0.37 0.189,-0.188 0.377,-0.377 0.75,-0.377 0.378,-0.373 0.747,-0.75 1.116,-1.308 0.751,-1.12 1.309,-2.24 1.874,-3.363 1.309,-3.737 2.24,-7.469 2.798,-11.209 1.127,-9.713 0.939,-19.613 -0.37,-29.333 -0.75,-4.853 -1.685,-9.901 -3.551,-14.573 -0.931,-2.235 -0.185,-5.229 0.935,-7.095 1.308,-2.243 3.363,-3.736 5.602,-4.302 2.432,-0.739 5.049,-0.369 7.284,0.939 1.309,0.746 2.436,1.866 3.183,3.363 0.369,0.746 0.746,1.497 1.12,2.055 1.119,3.174 1.866,6.349 2.612,9.531 2.806,14.572 3.552,29.883 1.12,44.644 -0.369,3.182 -1.12,6.168 -2.055,9.154 -1.12,3.363 -2.428,6.726 -4.294,9.528 -2.243,3.174 -4.86,6.168 -8.223,8.223 -3.363,2.055 -7.469,2.986 -11.398,3.174 -7.095,0.189 -13.822,-3.363 -18.116,-8.781 -1.866,-2.428 -3.363,-4.852 -4.86,-7.472 -1.304,2.62 -2.986,5.044 -4.86,7.284 -2.055,2.432 -4.667,4.86 -7.469,6.357 -3.551,1.677 -7.476,2.801 -11.582,2.612 -4.114,-0.369 -8.408,-1.493 -11.956,-3.732 -3.551,-2.243 -6.168,-5.237 -8.596,-8.592 -2.243,-2.994 -3.736,-6.546 -5.045,-9.909 -2.612,-7.1 -3.925,-14.753 -4.671,-22.418 -1.493,-11.956 -1.304,-24.473 -0.373,-36.617 0.373,-2.616 0.935,-4.672 2.801,-6.538"
         clip-path="url(#SVGID_8_)" /><path
         style="fill:#ffffff"
         inkscape:connector-curvature="0"
         id="path51"
         d="m 429.854,65.62 c 0.66,0.154 1.547,0.307 2.208,0.307 2.436,0.306 4.867,0.306 7.079,0.157 1.984,-0.31 3.98,-0.613 5.744,-1.076 1.771,-0.605 3.32,-1.214 5.088,-2.138 1.771,-0.911 3.32,-2.133 4.868,-3.351 1.987,-1.835 3.536,-3.819 4.868,-5.807 1.548,-2.75 2.647,-5.496 3.312,-8.396 0.444,-2.899 0.444,-5.65 0,-8.549 -0.439,-1.988 -1.328,-3.968 -2.436,-5.952 -0.66,-1.222 -1.765,-2.444 -2.872,-3.513 -0.885,-0.766 -1.988,-1.528 -2.872,-2.137 -1.108,-0.46 -2.212,-0.916 -3.32,-1.226 -1.548,-0.456 -3.315,-0.758 -4.864,-0.911 -1.328,-0.158 -2.651,-0.158 -3.983,0 -0.66,0 -1.548,0.153 -2.208,0.302 -0.664,0.307 -1.108,0.456 -1.772,0.766 -0.663,0.456 -1.324,0.912 -1.987,1.371 -1.108,1.069 -1.991,2.291 -2.88,3.513 -1.764,3.206 -2.872,6.714 -3.531,10.231 -0.664,3.661 -1.112,7.48 -1.112,11.146 -0.218,5.19 -0.002,10.231 0.67,15.263 M 407.29,62.112 c -0.664,-9.924 -0.44,-20.002 2.212,-29.773 1.332,-4.428 3.316,-8.702 6.413,-12.675 3.096,-3.814 7.523,-7.323 13.052,-9.464 2.872,-0.916 5.968,-1.831 9.063,-2.138 2.211,-0.149 4.428,-0.459 6.64,-0.459 2.208,0 4.644,0.31 6.852,0.613 7.516,0.766 14.38,3.206 19.685,6.718 10.611,6.868 14.592,17.711 14.155,27.325 -0.664,10.538 -5.756,21.224 -16.147,29.011 -5.309,3.972 -12.16,7.025 -19.677,8.707 -5.756,1.221 -11.728,1.677 -17.698,1.221 0.439,2.896 0.888,5.646 1.328,8.393 0.443,2.447 0.884,4.734 1.106,7.178 0.441,4.121 -5.307,7.633 -11.059,7.633 -2.872,0 -5.752,-0.766 -7.74,-2.29 -2.208,-1.371 -3.092,-3.206 -3.316,-5.343 -0.224,-3.053 -0.888,-6.11 -1.324,-9.005 -1.549,-8.554 -2.881,-17.103 -3.545,-25.652"
         clip-path="url(#SVGID_8_)" /></g><g
       id="g3323"
       transform="translate(396.18919,-49.681)"><path
         style="fill:#ffffff"
         inkscape:connector-curvature="0"
         id="path53"
         d="m 291.51,195.017 c -2.864,-15.087 -3.438,-30.566 -1.143,-45.653 0.569,-3.253 1.143,-6.306 2.098,-9.366 1.147,-3.43 2.483,-6.872 4.585,-9.736 2.102,-3.441 4.777,-6.306 8.215,-8.407 3.442,-2.102 7.642,-3.057 11.653,-3.25 7.261,-0.192 14.136,3.442 18.533,8.982 1.909,2.483 3.626,4.962 4.966,7.641 1.335,-2.679 3.06,-5.158 4.966,-7.453 2.102,-2.675 4.777,-4.966 7.645,-6.494 3.627,-1.717 7.642,-3.053 11.842,-2.676 4.204,0.381 8.6,1.34 12.223,3.819 3.634,2.295 6.305,5.163 8.789,8.789 2.294,3.062 3.826,6.691 5.162,10.125 2.672,7.264 4.011,15.091 4.774,22.736 1.532,12.419 1.532,25.216 0.381,37.635 -0.185,2.483 -0.951,4.777 -2.868,6.687 -1.717,1.718 -4.196,2.868 -6.683,2.868 -2.483,0 -4.963,-1.15 -6.687,-2.868 -1.717,-1.725 -3.053,-4.396 -2.868,-6.687 v -1.336 c 1.151,-12.419 1.151,-25.219 -0.378,-37.639 -0.958,-5.539 -2.101,-11.079 -4.203,-16.427 -0.767,-1.909 -1.717,-3.627 -2.869,-5.351 -0.762,-0.763 -1.335,-1.336 -2.101,-1.91 -0.378,-0.385 -0.951,-0.569 -1.336,-0.958 -0.574,-0.185 -1.144,-0.185 -1.717,-0.378 h -1.143 c -0.193,0 -0.582,0.193 -0.767,0.193 -0.385,0.185 -0.766,0.381 -1.151,0.758 -0.758,0.578 -1.524,1.336 -2.094,1.918 -1.344,2.101 -2.487,4.196 -3.442,6.297 -2.671,6.688 -4.203,13.563 -5.158,20.635 -0.574,4.012 -0.955,8.023 -0.955,12.034 0,5.163 -4.204,9.551 -9.555,9.551 -5.347,0 -9.17,-4.388 -9.551,-9.551 -0.189,-4.011 -0.57,-7.83 -0.955,-11.842 -1.147,-7.449 -2.675,-14.898 -5.347,-21.777 -0.959,-1.91 -1.913,-4.012 -3.249,-5.732 -0.574,-0.573 -1.147,-1.147 -1.721,-1.717 -0.189,-0.192 -0.57,-0.389 -0.955,-0.573 -0.188,0 -0.381,-0.193 -0.569,-0.193 h -0.959 c -0.574,0.193 -0.955,0.193 -1.336,0.378 -0.385,0.196 -0.573,0.196 -0.762,0.389 -0.385,0.377 -0.766,0.763 -1.147,1.144 -0.766,1.143 -1.529,2.479 -2.102,3.63 -1.34,3.626 -2.295,7.453 -2.864,11.465 -1.148,9.928 -0.959,20.053 0.377,29.993 0.766,4.962 1.721,10.124 3.634,14.898 0.955,2.102 0.189,5.351 -0.955,7.257 -1.147,2.102 -3.249,3.817 -5.732,4.399 -2.483,0.759 -5.159,0.377 -7.26,-0.959 -1.529,-0.766 -2.676,-1.909 -3.438,-3.44 -0.385,-0.764 -0.766,-1.529 -0.955,-2.295 -1.34,-3.055 -2.102,-6.3 -2.868,-9.553"
         clip-path="url(#SVGID_8_)" /><path
         style="fill:#ffffff"
         inkscape:connector-curvature="0"
         id="path55"
         d="m 442.22,199.524 c 0,-1.336 0.192,-2.675 0.192,-4.011 0.381,-5.925 0.766,-11.653 0.766,-17.39 -3.06,0.573 -5.924,1.34 -8.789,2.294 -2.098,0.955 -4.015,2.103 -5.731,3.442 -1.336,0.951 -2.294,2.103 -3.245,3.245 -0.574,0.766 -1.151,1.717 -1.726,2.676 -0.184,0.569 -0.377,1.144 -0.569,1.909 v 1.336 c 0.192,0.385 0.192,0.766 0.386,0.958 0.184,0.378 0.377,0.763 0.573,1.144 0.377,0.386 0.762,0.767 1.143,1.144 0.955,0.578 1.717,0.959 2.672,1.532 1.91,0.569 3.819,1.144 5.921,1.528 2.674,0.193 5.543,0.193 8.407,0.193 m 13.185,-60.752 c 5.728,11.653 6.872,25.027 6.872,37.823 0,10.703 -0.951,21.208 -1.718,31.902 -0.192,2.676 -0.959,4.971 -2.867,6.879 -1.714,1.722 -4.204,2.673 -6.684,2.673 -0.767,0 -1.336,0 -1.91,-0.186 -3.06,0.377 -6.112,0.758 -8.98,0.758 -3.631,0 -7.068,-0.188 -10.502,-0.758 -2.295,-0.385 -4.589,-0.958 -6.88,-1.725 -2.487,-0.95 -4.971,-1.905 -7.072,-3.438 -3.245,-2.102 -5.916,-4.581 -8.018,-7.831 -1.533,-2.294 -2.676,-4.966 -3.061,-7.641 -0.574,-3.819 -0.574,-7.072 0.193,-10.891 0.766,-2.864 1.909,-5.732 3.437,-8.216 7.449,-11.461 20.442,-17.382 33.813,-19.103 -0.763,-3.438 -1.524,-6.879 -2.868,-10.124 -0.758,-1.717 -1.521,-3.246 -2.479,-4.585 -0.766,-0.762 -1.336,-1.529 -2.102,-2.103 -0.574,-0.377 -1.336,-0.762 -1.909,-1.144 -0.959,-0.385 -1.91,-0.573 -2.868,-0.766 -1.524,-0.192 -3.053,0 -4.773,0 -3.058,0.573 -6.113,1.532 -9.166,2.676 -2.299,0.766 -5.163,0.191 -7.265,-0.959 -2.098,-1.336 -3.818,-3.438 -4.392,-5.729 -0.762,-2.487 -0.377,-5.159 0.959,-7.449 1.335,-2.295 3.245,-3.438 5.728,-4.397 4.396,-1.528 8.785,-2.483 13.37,-3.052 6.498,-0.766 13.563,0.377 19.103,3.819 5.348,3.066 9.552,8.027 12.039,13.567"
         clip-path="url(#SVGID_8_)" /><path
         style="fill:#ffffff"
         inkscape:connector-curvature="0"
         id="path57"
         d="m 497.82,163.879 c -0.377,13.186 1.527,25.219 3.244,38.208 0.386,2.295 -1.143,5.155 -2.671,6.688 -1.91,1.91 -4.393,2.863 -6.88,2.863 -2.482,0 -4.962,-0.953 -6.687,-2.863 -1.144,-1.147 -2.103,-2.483 -2.479,-4.204 -0.191,-0.758 -0.191,-1.717 -0.385,-2.483 -1.147,-9.166 -2.483,-17.191 -3.057,-26.362 -0.386,-7.257 -0.192,-14.324 0.767,-21.586 0.381,-1.912 0.573,-3.821 1.143,-5.731 l -7.826,-5.729 c -1.917,-1.344 -2.684,-4.396 -2.684,-6.69 0,-2.483 0.959,-4.962 2.684,-6.687 1.909,-1.909 4.196,-2.864 6.872,-2.864 1.721,0 3.253,0.385 4.773,1.336 l 0.192,0.192 4.396,3.245 c 0.954,-1.143 2.103,-2.102 3.249,-3.052 1.528,-1.336 3.245,-2.676 4.971,-3.819 1.904,-1.151 4.007,-1.914 6.108,-2.68 3.819,-1.524 7.83,-2.094 11.842,-2.483 4.012,-0.377 8.023,-0.192 12.034,0.389 1.721,0 3.438,0.377 4.777,1.336 0.763,0.574 1.336,0.951 2.102,1.524 1.721,1.721 2.672,4.204 2.672,6.683 0,2.487 -0.951,4.97 -2.672,6.691 -1.717,1.717 -4.585,3.25 -6.879,2.865 -4.196,-0.574 -8.4,-0.763 -12.604,-0.382 -2.103,0.382 -4.012,0.959 -5.736,1.529 -1.143,0.572 -2.287,1.339 -3.438,1.908 -0.95,0.959 -1.717,1.718 -2.482,2.677 -0.951,1.336 -1.717,2.675 -2.479,4.203 -1.15,3.053 -1.908,6.113 -2.294,9.358 -0.38,1.909 -0.38,4.011 -0.573,5.92"
         clip-path="url(#SVGID_8_)" /><path
         style="fill:#ffffff"
         inkscape:connector-curvature="0"
         id="path59"
         d="m 544.399,198.946 c -2.86,-15.087 -3.438,-30.567 -1.143,-45.654 0.568,-3.253 1.143,-6.305 2.102,-9.365 1.144,-3.431 2.479,-6.872 4.581,-9.736 2.102,-3.441 4.777,-6.306 8.215,-8.407 3.442,-2.102 7.646,-3.057 11.657,-3.25 7.257,-0.192 14.132,3.442 18.532,8.982 1.905,2.483 3.623,4.962 4.963,7.641 1.335,-2.679 3.056,-5.158 4.966,-7.453 2.102,-2.675 4.777,-4.966 7.645,-6.494 3.628,-1.717 7.643,-3.053 11.839,-2.676 4.208,0.381 8.604,1.34 12.227,3.819 3.634,2.295 6.305,5.163 8.788,8.789 2.295,3.061 3.823,6.69 5.163,10.125 2.672,7.264 4.011,15.091 4.773,22.735 1.532,12.419 1.532,25.217 0.382,37.636 -0.189,2.482 -0.951,4.776 -2.868,6.687 -1.717,1.717 -4.196,2.864 -6.684,2.864 -2.482,0 -4.963,-1.147 -6.687,-2.864 -1.717,-1.725 -3.053,-4.396 -2.868,-6.687 v -1.336 c 1.151,-12.42 1.151,-25.22 -0.378,-37.64 -0.958,-5.539 -2.101,-11.079 -4.203,-16.43 -0.767,-1.91 -1.717,-3.623 -2.869,-5.347 -0.766,-0.764 -1.335,-1.337 -2.102,-1.91 -0.381,-0.386 -0.95,-0.569 -1.335,-0.958 -0.574,-0.186 -1.145,-0.186 -1.717,-0.378 h -1.144 c -0.193,0 -0.582,0.192 -0.767,0.192 -0.386,0.186 -0.767,0.381 -1.151,0.758 -0.758,0.578 -1.524,1.337 -2.094,1.918 -1.344,2.102 -2.487,4.196 -3.442,6.298 -2.671,6.687 -4.204,13.563 -5.158,20.635 -0.573,4.011 -0.955,8.022 -0.955,12.034 0,5.163 -4.203,9.551 -9.551,9.551 -5.347,0 -9.174,-4.388 -9.551,-9.551 -0.193,-4.012 -0.574,-7.83 -0.959,-11.843 -1.143,-7.448 -2.675,-14.901 -5.347,-21.776 -0.959,-1.91 -1.909,-4.012 -3.245,-5.733 -0.574,-0.573 -1.151,-1.146 -1.726,-1.716 -0.185,-0.193 -0.569,-0.389 -0.95,-0.574 -0.192,0 -0.386,-0.192 -0.573,-0.192 h -0.955 c -0.574,0.192 -0.959,0.192 -1.34,0.378 -0.386,0.195 -0.569,0.195 -0.767,0.389 -0.377,0.377 -0.762,0.762 -1.143,1.143 -0.762,1.144 -1.529,2.479 -2.102,3.631 -1.337,3.626 -2.296,7.452 -2.864,11.465 -1.148,9.928 -0.959,20.053 0.377,29.993 0.766,4.962 1.725,10.124 3.634,14.897 0.955,2.103 0.193,5.347 -0.955,7.257 -1.146,2.103 -3.249,3.818 -5.731,4.396 -2.483,0.762 -5.155,0.381 -7.258,-0.955 -1.531,-0.766 -2.675,-1.909 -3.44,-3.441 -0.385,-0.763 -0.762,-1.528 -0.955,-2.295 -1.338,-3.054 -2.101,-6.299 -2.867,-9.552"
         clip-path="url(#SVGID_8_)" /><path
         style="fill:#ffffff"
         inkscape:connector-curvature="0"
         id="path61"
         d="m 665.137,202.088 c 0,-23.687 -0.569,-47.569 -0.569,-71.258 0,-5.347 4.396,-9.551 9.552,-9.551 5.154,0 9.551,4.204 9.551,9.551 0,23.688 0.573,47.571 0.573,71.258 0,5.155 -4.392,9.552 -9.551,9.552 -5.156,0 -9.556,-4.397 -9.556,-9.552 m 8.789,-100.017 c -5.154,0 -9.551,-4.396 -9.551,-9.551 0,-5.355 4.396,-9.555 9.551,-9.555 5.163,0 9.551,4.2 9.551,9.555 0,5.155 -4.388,9.551 -9.551,9.551"
         clip-path="url(#SVGID_8_)" /><path
         style="fill:#ffffff"
         inkscape:connector-curvature="0"
         id="path63"
         d="m 718.056,130.943 c 7.257,0.574 14.706,0.574 21.97,0.574 5.155,0 9.551,4.388 9.551,9.551 0,5.153 -4.396,9.551 -9.551,9.551 -7.449,0 -14.898,0 -22.163,-0.578 0,6.499 0.386,12.804 1.152,19.106 0.949,5.925 2.286,12.037 4.581,17.767 0.958,2.102 1.908,4.011 3.248,5.921 0.955,0.954 1.722,1.913 2.673,2.679 0.766,0.574 1.335,0.951 2.294,1.336 0.766,0.188 1.717,0.573 2.482,0.759 1.336,0 2.864,0 4.204,-0.186 h 0.959 c 2.479,-0.573 4.962,-0.573 7.256,0.951 2.295,1.151 3.819,3.253 4.39,5.54 1.339,4.778 -1.525,10.698 -6.684,11.849 h -0.381 c -3.246,0.764 -6.683,1.145 -9.936,0.951 -1.91,-0.188 -4.013,-0.573 -5.729,-0.951 -1.909,-0.388 -3.63,-1.15 -5.347,-1.909 -5.352,-2.486 -9.748,-6.879 -12.993,-11.849 -3.245,-4.773 -5.347,-10.318 -6.879,-15.856 -1.91,-6.491 -2.864,-13.179 -3.438,-19.865 -1.336,-12.419 -1.336,-25.031 -0.573,-37.442 0.381,-9.366 1.34,-18.532 2.102,-27.891 0.197,-2.487 0.955,-4.778 2.676,-6.687 1.909,-1.721 4.393,-2.864 6.879,-2.864 2.479,0 4.964,1.143 6.684,2.864 1.717,1.717 3.053,4.393 2.868,6.687 0,0.762 -0.192,1.336 -0.192,2.102 -0.767,9.358 -1.719,18.524 -2.103,27.89"
         clip-path="url(#SVGID_8_)" /><path
         style="fill:#ffffff"
         inkscape:connector-curvature="0"
         id="path65"
         d="m 782.222,139.129 c -1.721,2.294 -3.057,4.585 -4.204,7.257 -1.721,4.203 -2.863,8.6 -3.438,13.185 0,0 -0.192,0 -0.192,0.192 3.061,0.188 6.113,0.188 9.175,0 2.285,-0.385 4.58,-0.958 6.683,-1.722 1.532,-0.766 3.056,-1.716 4.585,-2.867 1.335,-0.95 2.479,-2.103 3.438,-3.245 0.959,-1.34 1.717,-2.675 2.295,-4.011 0.573,-1.341 0.95,-2.677 1.146,-4.204 0.193,-0.951 0.193,-2.103 0,-3.245 -0.196,-0.768 -0.389,-1.533 -0.573,-2.483 -0.385,-0.385 -0.573,-0.959 -0.959,-1.529 -0.377,-0.385 -0.766,-0.766 -1.143,-1.146 -0.385,-0.192 -0.959,-0.578 -1.529,-0.762 -0.958,-0.386 -1.717,-0.574 -2.675,-0.766 -1.717,-0.193 -3.246,-0.193 -4.97,0 -0.764,0.192 -1.525,0.38 -2.103,0.573 -0.951,0.377 -1.717,0.955 -2.479,1.529 -1.148,0.949 -2.102,2.1 -3.057,3.244 m -27.125,30.374 c -0.577,-11.075 1.718,-22.352 6.299,-32.669 4.203,-9.358 11.656,-17.956 21.589,-21.012 3.057,-0.951 6.498,-1.34 9.551,-1.34 3.438,0 6.876,0.389 10.125,1.532 6.113,2.295 11.845,6.306 14.906,12.227 1.336,2.672 2.479,5.347 2.859,8.214 0.193,1.91 0.574,3.632 0.574,5.54 0,1.909 -0.381,3.819 -0.574,5.729 -0.951,6.306 -4.195,12.038 -8.021,17 -4.39,5.352 -10.502,9.174 -17.001,11.657 -3.819,1.336 -7.646,2.102 -11.657,2.479 -2.671,0.192 -5.539,0.192 -8.215,0 0.385,1.151 0.766,2.294 1.15,3.441 0.767,1.721 1.718,3.249 2.677,4.773 0.762,0.767 1.717,1.726 2.479,2.487 0.959,0.573 1.726,1.147 2.675,1.524 1.152,0.385 2.295,0.766 3.438,0.959 1.725,0 3.442,0 5.351,-0.193 3.246,-0.573 6.499,-1.524 9.744,-2.86 0.767,-0.191 1.336,-0.581 2.103,-0.766 2.286,-1.151 4.581,-1.721 7.257,-0.959 2.482,0.574 4.396,2.102 5.731,4.396 1.339,2.103 1.718,4.777 0.954,7.257 -0.572,2.299 -2.29,4.777 -4.392,5.736 -4.97,2.286 -10.125,4.389 -15.472,5.535 -6.307,1.148 -12.993,1.529 -19.106,-0.381 -5.347,-1.721 -10.317,-4.777 -14.14,-8.981 -3.819,-4.58 -6.494,-9.551 -8.207,-15.091 -1.726,-5.151 -2.492,-10.694 -2.677,-16.234"
         clip-path="url(#SVGID_8_)" /></g></g><g
     transform="matrix(0.81553682,0,0,0.81553908,154.06972,854.7654)"
     id="g4008"><g
       clip-path="url(#SVGID_4_-1)"
       id="g3089"
       style="opacity:0.5"><g
         id="g3091"><defs
           id="defs3093"><rect
             id="SVGID_5_"
             x="128.451"
             y="220.30701"
             width="106.579"
             height="36.766998" /></defs><clipPath
           id="clipPath3785"><use
             xlink:href="#SVGID_5_"
             overflow="visible"
             id="use3787"
             style="overflow:visible"
             x="0"
             y="0"
             width="270.711"
             height="267" /></clipPath><path
           clip-path="url(#SVGID_6_)"
           d="m 214.914,220.307 c -12.518,17.433 -42.314,32.712 -78.229,35.945 -0.364,0.032 -0.73,0.059 -1.104,0.091 -0.361,0.035 -0.727,0.074 -1.104,0.11 -2.023,0.18 -4.027,0.302 -6.027,0.403 4.035,0.126 8.118,0.217 12.294,0.217 52.073,0 94.285,-10.188 94.285,-22.753 0.001,-5.292 -7.554,-10.147 -20.115,-14.013"
           id="path3099"
           inkscape:connector-curvature="0"
           style="fill:#a1a1a1" /></g></g><path
       clip-path="url(#SVGID_8_-7)"
       d="m 30.845,197.057 c -5.441,0 -10.793,-1.497 -15.55,-4.408 C 8.481,188.476 3.7,181.906 1.833,174.144 c -3.858,-16.026 6.043,-32.205 22.069,-36.063 3.76,-0.928 7.523,1.406 8.431,5.158 0.904,3.752 -1.406,7.524 -5.159,8.428 -4.133,0.998 -7.633,3.545 -9.853,7.171 -2.224,3.63 -2.9,7.904 -1.902,12.033 0.998,4.138 3.544,7.639 7.167,9.858 3.638,2.227 7.924,2.891 12.038,1.901 3.756,-0.939 7.527,1.402 8.431,5.154 0.904,3.756 -1.407,7.524 -5.159,8.432 -2.336,0.561 -4.703,0.841 -7.051,0.841"
       id="path3109"
       inkscape:connector-curvature="0"
       style="fill:#ffffff" /><path
       clip-path="url(#SVGID_8_-7)"
       d="m 212.128,174.766 c -3.803,0.169 -7.048,-3.119 -7.041,-7.001 0.008,-3.854 3.136,-6.97 6.99,-6.97 0.016,-0.004 0.03,0 0.051,0 4.235,0 8.223,-1.646 11.229,-4.64 3.014,-3.006 4.68,-6.997 4.688,-11.252 0.016,-8.781 -7.111,-15.937 -15.892,-15.957 -3.855,-0.003 -6.982,-3.139 -6.971,-7.001 0.004,-3.85 3.135,-6.97 6.985,-6.97 h 0.016 c 7.98,0.016 15.488,3.14 21.118,8.797 5.638,5.658 8.73,13.17 8.714,21.157 -0.016,7.988 -3.139,15.488 -8.797,21.126 -5.642,5.619 -13.126,8.711 -21.09,8.711"
       id="path3111"
       inkscape:connector-curvature="0"
       style="fill:#ffffff" /><path
       clip-path="url(#SVGID_8_-7)"
       d="m 115.021,20.494 c -0.79,-1.124 -1.654,-2.169 -2.573,-3.159 -0.079,-0.086 -0.154,-0.173 -0.236,-0.255 -0.943,-0.994 -1.941,-1.925 -3.002,-2.766 -0.004,-0.008 -0.012,-0.012 -0.016,-0.016 -0.986,-0.782 -2.027,-1.481 -3.095,-2.133 -0.221,-0.134 -0.441,-0.267 -0.664,-0.397 -1.108,-0.637 -2.244,-1.218 -3.423,-1.709 C 94.968,7.136 86.812,6.884 79.217,10 c -13.7,5.634 -20.96,20.32 -17.766,34.303 0.027,0.118 0.031,0.232 0.059,0.35 0.008,-0.004 0.015,-0.008 0.023,-0.016 0.354,1.469 0.786,2.935 1.379,4.373 1.462,3.571 5.548,5.276 9.115,3.815 3.576,-1.474 5.273,-5.548 3.807,-9.119 -0.876,-2.134 -1.225,-4.349 -1.155,-6.522 0.004,0 0.008,-0.004 0.012,-0.004 0.032,-1.057 0.169,-2.102 0.405,-3.12 0.008,-0.039 0.023,-0.07 0.035,-0.11 0.224,-0.943 0.534,-1.866 0.927,-2.754 0.118,-0.263 0.275,-0.507 0.409,-0.766 0.322,-0.64 0.66,-1.273 1.069,-1.862 0.251,-0.362 0.554,-0.688 0.836,-1.026 0.37,-0.451 0.735,-0.911 1.159,-1.32 0.468,-0.452 0.983,-0.852 1.509,-1.245 0.263,-0.201 0.503,-0.424 0.782,-0.605 0.841,-0.554 1.737,-1.045 2.699,-1.442 1.273,-0.523 2.577,-0.813 3.878,-0.986 0.314,-0.043 0.625,-0.059 0.939,-0.083 1.151,-0.082 2.294,-0.067 3.418,0.098 0.13,0.016 0.263,0.02 0.393,0.044 2.734,0.475 5.324,1.646 7.484,3.418 1.977,1.615 3.631,3.669 4.668,6.192 1.462,3.567 5.548,5.276 9.115,3.811 0.798,-0.326 1.501,-0.786 2.098,-1.34 2.074,-1.925 2.848,-5.005 1.709,-7.775 -0.86,-2.098 -1.949,-4.031 -3.198,-5.811 l -0.004,-0.004 z"
       id="path3113"
       inkscape:connector-curvature="0"
       style="fill:#ffffff" /><path
       clip-path="url(#SVGID_8_-7)"
       d="m 112.82,6.605 c 0.31,0.22 0.68,0.432 0.978,0.66 l 0.625,0.338 0.53,0.574 c 1.132,0.935 2.224,1.96 3.324,3.119 l 0.342,0.358 c 1.214,1.312 2.287,2.632 3.257,4.011 0.585,0.833 1.092,1.705 1.603,2.569 20.426,-4.977 33.969,-3.995 35.863,-0.019 1.064,2.224 -1.489,9.366 -12.871,19.915 C 135.164,48.616 118.659,59.291 100,68.198 57.961,88.259 26.787,89.115 23.815,82.896 22.754,80.672 25.304,73.533 36.69,62.976 41.574,58.45 47.475,53.893 54.056,49.449 L 53.25,46.181 53.203,45.831 C 52.323,41.823 52.19,37.765 52.598,33.785 42.828,39.887 34.113,46.31 27.19,52.726 8.131,70.394 7.979,82.161 11.205,88.919 c 9.48,19.856 54.87,10.95 94.815,-8.109 19.9,-9.5 37.639,-21.012 49.952,-32.429 C 175.027,30.717 175.184,18.953 171.957,12.192 165.271,-1.811 140.716,-1.473 112.82,6.605"
       id="path3115"
       inkscape:connector-curvature="0"
       style="fill:#ffffff" /><path
       clip-path="url(#SVGID_8_-7)"
       d="m 197.85,57.514 c 0,5.104 -4.137,9.245 -9.244,9.245 -5.104,0 -9.24,-4.141 -9.24,-9.245 0,-5.104 4.137,-9.245 9.24,-9.245 5.107,0 9.244,4.141 9.244,9.245"
       id="path3117"
       inkscape:connector-curvature="0"
       style="fill:#4ea5dc" /><path
       clip-path="url(#SVGID_8_-7)"
       d="m 89.728,112.358 c 0,5.104 -4.137,9.245 -9.245,9.245 -5.103,0 -9.244,-4.141 -9.244,-9.245 0,-5.104 4.141,-9.245 9.244,-9.245 5.107,0 9.245,4.141 9.245,9.245"
       id="path3119"
       inkscape:connector-curvature="0"
       style="fill:#4ea5dc" /><path
       clip-path="url(#SVGID_8_-7)"
       d="m 118.07,96.336 c 0,5.104 -4.137,9.245 -9.245,9.245 -5.103,0 -9.24,-4.141 -9.24,-9.245 0,-5.104 4.137,-9.245 9.24,-9.245 5.108,0 9.245,4.141 9.245,9.245"
       id="path3121"
       inkscape:connector-curvature="0"
       style="fill:#4ea5dc" /><path
       clip-path="url(#SVGID_8_-7)"
       d="m 123.924,121.602 c 0,5.104 -4.137,9.245 -9.245,9.245 -5.103,0 -9.24,-4.141 -9.24,-9.245 0,-5.104 4.137,-9.245 9.24,-9.245 5.108,0 9.245,4.141 9.245,9.245"
       id="path3123"
       inkscape:connector-curvature="0"
       style="fill:#4ea5dc" /><path
       clip-path="url(#SVGID_8_-7)"
       d="m 146.417,96.336 c 0,5.104 -4.138,9.245 -9.245,9.245 -5.103,0 -9.24,-4.141 -9.24,-9.245 0,-5.104 4.137,-9.245 9.24,-9.245 5.107,0 9.245,4.141 9.245,9.245"
       id="path3125"
       inkscape:connector-curvature="0"
       style="fill:#4ea5dc" /><path
       clip-path="url(#SVGID_8_-7)"
       d="m 182.776,100.132 c 0,5.104 -4.138,9.245 -9.245,9.245 -5.104,0 -9.24,-4.141 -9.24,-9.245 0,-5.104 4.137,-9.245 9.24,-9.245 5.108,0 9.245,4.141 9.245,9.245"
       id="path3127"
       inkscape:connector-curvature="0"
       style="fill:#4ea5dc" /><path
       clip-path="url(#SVGID_8_-7)"
       d="m 270.711,81.646 c 0,5.599 -4.538,10.14 -10.141,10.14 -5.599,0 -10.137,-4.541 -10.137,-10.14 0,-5.599 4.538,-10.14 10.137,-10.14 5.603,-0.001 10.141,4.54 10.141,10.14"
       id="path3129"
       inkscape:connector-curvature="0"
       style="fill:#4ea5dc" /><path
       clip-path="url(#SVGID_8_-7)"
       d="m 241.633,45.922 c 0,5.599 -4.538,10.14 -10.14,10.14 -5.6,0 -10.137,-4.541 -10.137,-10.14 0,-5.599 4.537,-10.14 10.137,-10.14 5.602,0 10.14,4.541 10.14,10.14"
       id="path3131"
       inkscape:connector-curvature="0"
       style="fill:#4ea5dc" /><path
       clip-path="url(#SVGID_8_-7)"
       d="m 168.602,77.652 c 0,5.104 -4.138,9.245 -9.245,9.245 -5.104,0 -9.24,-4.141 -9.24,-9.245 0,-5.104 4.137,-9.245 9.24,-9.245 5.107,0 9.245,4.141 9.245,9.245"
       id="path3133"
       inkscape:connector-curvature="0"
       style="fill:#4ea5dc" /><path
       clip-path="url(#SVGID_8_-7)"
       d="m 161.206,116.154 c 0,5.104 -4.137,9.245 -9.245,9.245 -5.103,0 -9.239,-4.141 -9.239,-9.245 0,-5.104 4.137,-9.245 9.239,-9.245 5.108,0 9.245,4.141 9.245,9.245"
       id="path3135"
       inkscape:connector-curvature="0"
       style="fill:#4ea5dc" /><path
       clip-path="url(#SVGID_8_-7)"
       d="m 135.451,242.333 -0.401,0.031 -0.77,0.063 -0.593,0.06 -0.46,0.047 c -4.168,0.374 -8.38,0.566 -12.521,0.566 -38.719,0 -60.002,-15.508 -64.886,-27.113 -0.078,-0.896 -16.065,-57.11 -21.31,-76.271 15.437,9.119 38.566,14.281 64.552,14.281 6.066,0 12.277,-0.283 18.505,-0.844 l 0.628,-0.06 0.456,-0.048 0.405,-0.03 0.679,-0.056 c 35.419,-3.189 66.186,-14.729 82.581,-30.932 1.407,22.096 3.596,57.482 4.943,79.406 0.008,0.264 0.023,0.526 0.043,0.79 1.112,13.449 -28.578,36.217 -71.851,40.11 m 85.778,-41.261 h 0.009 c 0,0 -5.732,-93.275 -6.294,-99.856 -0.609,-7.159 -5.604,-13.488 -13.869,-18.659 -1.705,-1.068 -3.784,0.822 -2.724,2.531 1.58,2.542 2.542,5.249 2.782,8.097 0.538,6.314 -2.436,12.58 -8.121,18.379 -13.252,13.531 -41.324,24.489 -74.531,27.475 -0.365,0.031 -0.731,0.06 -1.1,0.09 -0.365,0.032 -0.731,0.075 -1.104,0.11 -5.874,0.527 -11.633,0.782 -17.216,0.782 -25.982,0 -48.2,-5.504 -60.819,-14.525 -6.577,-4.699 -10.565,-10.337 -11.103,-16.65 -0.495,-5.835 2.07,-11.614 6.926,-17.032 -12.757,8.223 -19.986,17.786 -19.169,27.404 0.535,6.274 27.003,97.994 27.003,97.994 7.029,23.594 36.126,39.862 78.806,39.862 4.506,0 9.107,-0.204 13.774,-0.625 0.374,-0.031 0.743,-0.074 1.104,-0.106 0.374,-0.034 0.739,-0.059 1.101,-0.09 48.872,-4.399 86.538,-31.089 84.545,-55.181"
       id="path3137"
       inkscape:connector-curvature="0"
       style="fill:#ffffff" /><path
       clip-path="url(#SVGID_10_-4)"
       d="m 90.993,176.255 c 1.664,6.908 -4.399,12.971 -11.307,11.307 -3.247,-0.78 -5.909,-3.444 -6.693,-6.692 -1.664,-6.905 4.402,-12.971 11.307,-11.308 3.248,0.784 5.912,3.446 6.693,6.693"
       id="path3147"
       inkscape:connector-curvature="0"
       style="fill:#ffffff" /><path
       clip-path="url(#SVGID_10_-4)"
       d="m 183.141,165.254 c 1.664,6.908 -4.399,12.972 -11.307,11.308 -3.247,-0.781 -5.909,-3.445 -6.693,-6.69 -1.664,-6.908 4.402,-12.974 11.307,-11.31 3.247,0.784 5.911,3.445 6.693,6.692"
       id="path3149"
       inkscape:connector-curvature="0"
       style="fill:#ffffff" /><path
       clip-path="url(#SVGID_10_-4)"
       d="m 132.621,222.474 c -9.78,0 -18.16,-7.313 -19.489,-17.012 -0.149,-1.018 0.11,-2.023 0.728,-2.842 0.621,-0.828 1.534,-1.364 2.566,-1.508 0.18,-0.022 0.358,-0.034 0.533,-0.034 1.915,0 3.553,1.432 3.816,3.335 0.434,3.169 2.081,5.976 4.626,7.904 2.101,1.596 4.594,2.44 7.211,2.44 0.548,0 1.099,-0.038 1.65,-0.114 3.169,-0.437 5.979,-2.078 7.911,-4.623 1.936,-2.55 2.761,-5.694 2.323,-8.864 -0.148,-1.017 0.107,-2.022 0.726,-2.842 0.624,-0.831 1.536,-1.367 2.568,-1.507 0.184,-0.026 0.361,-0.038 0.537,-0.038 1.912,0 3.553,1.435 3.814,3.335 0.216,1.568 0.242,3.143 0.088,4.678 -0.358,3.58 -1.708,6.999 -3.905,9.896 -3.181,4.195 -7.802,6.897 -13.01,7.611 -0.892,0.124 -1.798,0.185 -2.693,0.185"
       id="path3151"
       inkscape:connector-curvature="0"
       style="fill:#ffffff" /></g></g></svg>